<svg xmlns="http://www.w3.org/2000/svg" viewBox="0 0 1200 400" width="1200" height="400" font-family="'Segoe UI', Arial, sans-serif">
  <!-- background gradient -->
  <defs>
    <radialGradient id="bg" cx="50%" cy="40%" r="75%">
      <stop offset="0%" stop-color="#3a2a1a"/>
      <stop offset="100%" stop-color="#0a0604"/>
    </radialGradient>
    <linearGradient id="footer" x1="0" y1="0" x2="1" y2="0">
      <stop offset="0%" stop-color="#1f3b8a"/>
      <stop offset="50%" stop-color="#2c5cd6"/>
      <stop offset="100%" stop-color="#1f3b8a"/>
    </linearGradient>
    <linearGradient id="gold" x1="0" y1="0" x2="0" y2="1">
      <stop offset="0%" stop-color="#ffe27a"/>
      <stop offset="100%" stop-color="#caa233"/>
    </linearGradient>
    <pattern id="staffLines" x="0" y="0" width="1200" height="400" patternUnits="userSpaceOnUse">
      <line x1="0" y1="200" x2="1200" y2="200" stroke="#fff" stroke-opacity="0.04" stroke-width="1"/>
      <line x1="0" y1="215" x2="1200" y2="215" stroke="#fff" stroke-opacity="0.04" stroke-width="1"/>
      <line x1="0" y1="230" x2="1200" y2="230" stroke="#fff" stroke-opacity="0.04" stroke-width="1"/>
      <line x1="0" y1="245" x2="1200" y2="245" stroke="#fff" stroke-opacity="0.04" stroke-width="1"/>
      <line x1="0" y1="260" x2="1200" y2="260" stroke="#fff" stroke-opacity="0.04" stroke-width="1"/>
    </pattern>
  </defs>

  <rect width="1200" height="400" fill="url(#bg)"/>
  <rect width="1200" height="400" fill="url(#staffLines)"/>

  <!-- decorative musical notes -->
  <g fill="#caa233" opacity="0.18" font-size="34">
    <text x="60" y="80">&#9835;</text>
    <text x="1110" y="100">&#9833;</text>
    <text x="160" y="350">&#9839;</text>
    <text x="1050" y="340">&#9837;</text>
    <text x="600" y="60">&#9836;</text>
  </g>

  <!-- title -->
  <text x="600" y="62" text-anchor="middle" font-size="42" font-weight="900" fill="url(#gold)" letter-spacing="6">THE A-TEAM</text>
  <text x="600" y="92" text-anchor="middle" font-size="14" font-weight="600" fill="#e8d8a8" letter-spacing="10">MUSIC PRODUCTION AGENCY</text>

  <!-- ==================== Conductor (Quincy) ==================== -->
  <g transform="translate(180,140)">
    <!-- baton hand -->
    <line x1="-40" y1="120" x2="-90" y2="60" stroke="#f0e6d2" stroke-width="4" stroke-linecap="round"/>
    <circle cx="-90" cy="60" r="5" fill="#f0e6d2"/>
    <!-- body / tuxedo -->
    <path d="M -50 110 Q -50 220 0 220 Q 50 220 50 110 Z" fill="#1a1a1a"/>
    <!-- white shirt -->
    <path d="M -10 110 L 10 110 L 6 200 L -6 200 Z" fill="#f5f5f5"/>
    <!-- bow tie -->
    <path d="M -12 116 L 0 122 L 12 116 L 12 130 L 0 124 L -12 130 Z" fill="#caa233"/>
    <!-- lapels -->
    <path d="M -50 110 L -10 115 L -10 150 Z" fill="#0e0e0e"/>
    <path d="M 50 110 L 10 115 L 10 150 Z" fill="#0e0e0e"/>
    <!-- arms -->
    <rect x="-55" y="115" width="14" height="60" fill="#1a1a1a" rx="6"/>
    <rect x="41" y="115" width="14" height="60" fill="#1a1a1a" rx="6"/>
    <!-- head -->
    <circle cx="0" cy="80" r="32" fill="#d9b48a"/>
    <!-- hair -->
    <path d="M -30 70 Q -20 45 0 45 Q 20 45 30 70 L 28 75 Q 0 60 -28 75 Z" fill="#3b2a1a"/>
    <!-- visor band -->
    <rect x="-32" y="76" width="64" height="14" fill="#0c0c0c"/>
    <text x="0" y="87" text-anchor="middle" font-size="8" font-weight="900" fill="url(#gold)" letter-spacing="0.5">CONDUCTOR</text>
    <!-- nameplate -->
    <text x="0" y="240" text-anchor="middle" font-size="14" font-weight="800" fill="#e8d8a8" letter-spacing="2">QUINCY</text>
    <text x="0" y="256" text-anchor="middle" font-size="10" fill="#a0916a" letter-spacing="1">orchestrator</text>
  </g>

  <!-- ==================== Lyricist (Cohen) ==================== -->
  <g transform="translate(440,140)">
    <!-- body -->
    <path d="M -50 110 Q -50 220 0 220 Q 50 220 50 110 Z" fill="#5a3a2a"/>
    <!-- scarf -->
    <path d="M -20 108 Q 0 130 20 108 L 22 145 L -22 145 Z" fill="#8a3030"/>
    <!-- arms -->
    <rect x="-55" y="115" width="14" height="60" fill="#5a3a2a" rx="6"/>
    <rect x="41" y="115" width="14" height="60" fill="#5a3a2a" rx="6"/>
    <!-- notebook + quill -->
    <rect x="22" y="160" width="40" height="50" fill="#f4ead6" stroke="#3b2a1a" stroke-width="1"/>
    <line x1="28" y1="172" x2="56" y2="172" stroke="#3b2a1a" stroke-width="0.8"/>
    <line x1="28" y1="180" x2="56" y2="180" stroke="#3b2a1a" stroke-width="0.8"/>
    <line x1="28" y1="188" x2="50" y2="188" stroke="#3b2a1a" stroke-width="0.8"/>
    <line x1="28" y1="196" x2="56" y2="196" stroke="#3b2a1a" stroke-width="0.8"/>
    <!-- quill -->
    <line x1="-30" y1="170" x2="-58" y2="200" stroke="#f0e6d2" stroke-width="2"/>
    <path d="M -58 200 Q -68 192 -64 184 Q -58 196 -54 192 Z" fill="#f0e6d2"/>
    <!-- head -->
    <circle cx="0" cy="80" r="32" fill="#cf9a6f"/>
    <!-- hair (short) -->
    <path d="M -30 70 Q -20 42 0 42 Q 22 42 30 70 L 28 76 Q 0 56 -28 76 Z" fill="#1a1410"/>
    <!-- visor -->
    <rect x="-32" y="76" width="64" height="14" fill="#0c0c0c"/>
    <text x="0" y="87" text-anchor="middle" font-size="8" font-weight="900" fill="url(#gold)" letter-spacing="0.5">LYRICIST</text>
    <!-- nameplate -->
    <text x="0" y="240" text-anchor="middle" font-size="14" font-weight="800" fill="#e8d8a8" letter-spacing="2">COHEN</text>
    <text x="0" y="256" text-anchor="middle" font-size="10" fill="#a0916a" letter-spacing="1">lyricist</text>
  </g>

  <!-- ==================== Producer (Rubin) ==================== -->
  <g transform="translate(720,140)">
    <!-- body, hoodie -->
    <path d="M -55 110 Q -55 225 0 225 Q 55 225 55 110 Z" fill="#202020"/>
    <!-- hood -->
    <path d="M -35 60 Q 0 30 35 60 L 30 95 L -30 95 Z" fill="#202020"/>
    <!-- chain -->
    <path d="M -18 118 Q 0 138 18 118" stroke="url(#gold)" stroke-width="2.5" fill="none"/>
    <circle cx="0" cy="138" r="4" fill="url(#gold)"/>
    <!-- arms -->
    <rect x="-58" y="115" width="14" height="60" fill="#202020" rx="6"/>
    <rect x="44" y="115" width="14" height="60" fill="#202020" rx="6"/>
    <!-- mixing console held in front -->
    <rect x="-44" y="170" width="88" height="38" rx="4" fill="#3a3a3a" stroke="#0c0c0c" stroke-width="1.2"/>
    <!-- knobs -->
    <g fill="#caa233">
      <circle cx="-32" cy="183" r="3.5"/><circle cx="-18" cy="183" r="3.5"/>
      <circle cx="-4" cy="183" r="3.5"/><circle cx="10" cy="183" r="3.5"/>
      <circle cx="24" cy="183" r="3.5"/><circle cx="38" cy="183" r="3.5"/>
    </g>
    <!-- faders -->
    <g fill="#cfcfcf">
      <rect x="-34" y="195" width="3" height="10"/><rect x="-20" y="192" width="3" height="13"/>
      <rect x="-6" y="198" width="3" height="7"/><rect x="8" y="190" width="3" height="15"/>
      <rect x="22" y="196" width="3" height="9"/><rect x="36" y="193" width="3" height="12"/>
    </g>
    <!-- LED -->
    <circle cx="40" cy="175" r="2" fill="#5cff8e"/>
    <!-- head -->
    <circle cx="0" cy="80" r="32" fill="#a87654"/>
    <!-- visor -->
    <rect x="-32" y="76" width="64" height="14" fill="#0c0c0c"/>
    <text x="0" y="87" text-anchor="middle" font-size="8" font-weight="900" fill="url(#gold)" letter-spacing="0.5">PRODUCER</text>
    <!-- beard -->
    <path d="M -18 100 Q 0 116 18 100 Q 14 110 0 112 Q -14 110 -18 100 Z" fill="#1a1410"/>
    <!-- nameplate -->
    <text x="0" y="245" text-anchor="middle" font-size="14" font-weight="800" fill="#e8d8a8" letter-spacing="2">RUBIN</text>
    <text x="0" y="261" text-anchor="middle" font-size="10" fill="#a0916a" letter-spacing="1">producer</text>
  </g>

  <!-- ==================== Critic (Pauline) ==================== -->
  <g transform="translate(1000,140)">
    <!-- body / blazer -->
    <path d="M -50 110 Q -50 220 0 220 Q 50 220 50 110 Z" fill="#2b1f33"/>
    <!-- blouse v -->
    <path d="M -10 110 L 0 138 L 10 110 Z" fill="#d9c8e8"/>
    <!-- arms -->
    <rect x="-55" y="115" width="14" height="60" fill="#2b1f33" rx="6"/>
    <rect x="41" y="115" width="14" height="60" fill="#2b1f33" rx="6"/>
    <!-- headphones around neck -->
    <path d="M -30 110 Q 0 90 30 110" stroke="#0c0c0c" stroke-width="3" fill="none"/>
    <ellipse cx="-30" cy="115" rx="6" ry="8" fill="#0c0c0c"/>
    <ellipse cx="30" cy="115" rx="6" ry="8" fill="#0c0c0c"/>
    <ellipse cx="-30" cy="115" rx="3" ry="5" fill="#caa233"/>
    <ellipse cx="30" cy="115" rx="3" ry="5" fill="#caa233"/>
    <!-- clipboard with waveform & verdict -->
    <rect x="14" y="155" width="50" height="58" fill="#f4ead6" stroke="#3b2a1a" stroke-width="1"/>
    <rect x="28" y="151" width="22" height="6" rx="2" fill="#7a6a4a"/>
    <!-- waveform -->
    <polyline points="18,178 22,172 26,184 30,166 34,182 38,170 42,186 46,168 50,182 54,172 58,180 62,176"
              fill="none" stroke="#2c5cd6" stroke-width="1.5"/>
    <text x="39" y="202" text-anchor="middle" font-size="6" font-weight="900" fill="#1a8a3a">VERDICT</text>
    <text x="39" y="210" text-anchor="middle" font-size="6" font-weight="900" fill="#1a8a3a">SHIP ✓</text>
    <!-- head -->
    <circle cx="0" cy="80" r="32" fill="#e0b48c"/>
    <!-- hair (long) -->
    <path d="M -30 70 Q -28 38 0 38 Q 28 38 30 70 L 36 110 L 28 76 Q 0 56 -28 76 L -36 110 Z" fill="#5a2a3a"/>
    <!-- visor -->
    <rect x="-32" y="76" width="64" height="14" fill="#0c0c0c"/>
    <text x="0" y="87" text-anchor="middle" font-size="8" font-weight="900" fill="url(#gold)" letter-spacing="0.5">CRITIC</text>
    <!-- nameplate -->
    <text x="0" y="240" text-anchor="middle" font-size="14" font-weight="800" fill="#e8d8a8" letter-spacing="2">PAULINE</text>
    <text x="0" y="256" text-anchor="middle" font-size="10" fill="#a0916a" letter-spacing="1">critic</text>
  </g>

  <!-- footer banner -->
  <path d="M 0 360 L 1200 360 L 1200 400 L 0 400 Z" fill="url(#footer)"/>
  <text x="600" y="388" text-anchor="middle" font-size="22" font-weight="900" fill="#f4ead6" letter-spacing="6">THERE IS NO TAKE TWO… UNLESS THE CRITIC SAYS SO</text>
</svg>
